<svg width="37" height="36" viewBox="0 0 37 36" fill="none" xmlns="http://www.w3.org/2000/svg">
<path d="M31.0421 24.746C31.0421 30.6068 25.4333 35.366 18.5069 35.366C11.5805 35.366 5.95728 30.6068 5.95728 24.746C5.95728 19.9652 9.69407 15.9188 14.8205 14.5796V14.9108C10.4069 16.2356 7.24608 19.8716 7.24608 24.17C7.24608 29.5844 12.2861 33.962 18.5069 33.962C24.7277 33.962 29.7605 29.5844 29.7605 24.17C29.7605 19.85 26.5925 16.25 22.1789 14.9036V14.5796C27.3125 15.9188 31.0421 19.958 31.0421 24.746Z" fill="#9FBBCE"/>
<mask id="mask0_128_9039" style="mask-type:luminance" maskUnits="userSpaceOnUse" x="5" y="14" width="27" height="22">
<path d="M31.0413 24.746C31.0413 30.6068 25.4325 35.366 18.5061 35.366C11.5797 35.366 5.95654 30.6068 5.95654 24.746C5.95654 19.9652 9.69334 15.9188 14.8197 14.5796V14.9108C10.4061 16.2356 7.24534 19.8716 7.24534 24.17C7.24534 29.5844 12.2853 33.962 18.5061 33.962C24.7269 33.962 29.7597 29.5844 29.7597 24.17C29.7597 19.85 26.5917 16.25 22.1781 14.9036V14.5796C27.3117 15.9188 31.0413 19.958 31.0413 24.746Z" fill="white"/>
</mask>
<g mask="url(#mask0_128_9039)">
<path d="M14.1794 34.5592C14.669 34.1776 17.3978 34.012 18.5426 33.9616C19.6874 33.9112 21.6818 34.0552 22.5818 34.5592C21.5523 34.9468 20.4823 35.2174 19.3922 35.3656L16.8794 35.1568L14.1794 34.5592Z" fill="#6B87A3"/>
<path d="M8.09519 23.5221C8.69279 26.9997 8.63519 29.8941 7.95119 30.0021C7.26719 30.1101 6.25919 27.3597 5.62559 23.8965C4.99199 20.4333 8.59199 16.7973 9.27599 16.6965C9.95999 16.5957 7.49039 20.0445 8.09519 23.5221Z" fill="white"/>
</g>
<path d="M31.0421 24.746C31.0421 30.6068 25.4333 35.366 18.5069 35.366C11.5805 35.366 5.95728 30.6068 5.95728 24.746C5.95728 19.9652 9.69407 15.9188 14.8205 14.5796V14.9108C10.4069 16.2356 7.24608 19.8716 7.24608 24.17C7.24608 29.5844 12.2861 33.962 18.5069 33.962C24.7277 33.962 29.7605 29.5844 29.7605 24.17C29.7605 19.85 26.5925 16.25 22.1789 14.9036V14.5796C27.3125 15.9188 31.0421 19.958 31.0421 24.746Z" stroke="#4C6E88" stroke-width="0.3744" stroke-miterlimit="10"/>
<path d="M29.7605 24.1703C29.7605 29.5847 24.7205 33.9623 18.5069 33.9623C12.2933 33.9623 7.24609 29.5847 7.24609 24.1703C7.24609 19.8503 10.4069 16.2503 14.8205 14.9111V11.9735H13.6325C13.2646 11.9335 12.9262 11.7533 12.6876 11.4705C12.4489 11.1876 12.3284 10.8237 12.3509 10.4543L12.0845 7.4015V7.3367C12.0845 6.7247 14.9645 6.2207 18.5141 6.2207C22.0637 6.2207 24.9365 6.7247 24.9365 7.3367V7.4015L24.6773 10.4543C24.6998 10.8237 24.5793 11.1876 24.3406 11.4705C24.102 11.7533 23.7636 11.9335 23.3957 11.9735H22.1789V14.9039C26.5925 16.2287 29.7605 19.8719 29.7605 24.1703Z" fill="#9FBBCE"/>
<mask id="mask1_128_9039" style="mask-type:luminance" maskUnits="userSpaceOnUse" x="7" y="6" width="23" height="28">
<path d="M29.7612 24.1708C29.7612 29.5852 24.7212 33.9628 18.5076 33.9628C12.294 33.9628 7.24683 29.5852 7.24683 24.1708C7.24683 19.8508 10.4076 16.2508 14.8212 14.9116V11.974H13.6332C13.2653 11.934 12.9269 11.7538 12.6883 11.471C12.4497 11.1881 12.3291 10.8242 12.3516 10.4548L12.0852 7.40199V7.33719C12.0852 6.72519 14.9652 6.22119 18.5148 6.22119C22.0644 6.22119 24.9372 6.72519 24.9372 7.33719V7.40199L24.678 10.4548C24.7006 10.8242 24.58 11.1881 24.3414 11.471C24.1027 11.7538 23.7643 11.934 23.3964 11.974H22.1796V14.9044C26.5932 16.2292 29.7612 19.8724 29.7612 24.1708Z" fill="white"/>
</mask>
<g mask="url(#mask1_128_9039)">
<path d="M10.8314 19.642C12.329 20.4268 23.6906 19.642 26.9522 17.6908C29.6018 16.762 29.7602 22.6084 29.7602 22.6084L21.0626 27.1084L10.8314 22.126V19.642Z" fill="#FFF688"/>
<path d="M8.41962 18.7709C11.026 19.2821 13.402 21.4277 16.3828 22.1909C19.3636 22.9541 23.5828 23.6309 26.5132 22.6733C28.8172 21.9101 28.5436 19.8725 27.4708 18.6773C26.398 17.4821 33.9508 19.4477 33.9508 19.5413C33.9508 19.6349 28.3636 33.2213 28.2988 33.3725C28.234 33.5237 18.4996 35.6117 18.3556 35.6117C18.2116 35.6117 6.70602 31.8677 6.70602 31.8677L5.36682 24.2645L6.73482 19.6061L8.41962 18.7709Z" fill="#FFDA3E"/>
<path d="M13.6787 17.8129C14.3974 17.2936 14.797 16.6191 14.5711 16.3065C14.3452 15.9939 13.5794 16.1614 12.8606 16.6807C12.1419 17.2001 11.7423 17.8745 11.9682 18.1872C12.1941 18.4998 12.9599 18.3323 13.6787 17.8129Z" fill="white"/>
<path d="M26.3323 25.5931C26.8449 25.3864 27.0784 24.7674 26.8539 24.2105C26.6293 23.6536 26.0318 23.3697 25.5191 23.5764C25.0065 23.7831 24.773 24.4021 24.9975 24.959C25.2221 25.5159 25.8196 25.7998 26.3323 25.5931Z" fill="white"/>
<path d="M15.1012 15.1998C15.988 15.1998 16.7068 14.5293 16.7068 13.7022C16.7068 12.8751 15.988 12.2046 15.1012 12.2046C14.2145 12.2046 13.4956 12.8751 13.4956 13.7022C13.4956 14.5293 14.2145 15.1998 15.1012 15.1998Z" fill="#6B87A3"/>
<path d="M25.6346 22.0689C26.5346 21.5865 26.9666 19.6857 26.0162 18.1521C25.0658 16.6185 23.093 16.0353 22.193 16.5177C21.293 17.0001 21.3794 18.6345 22.2938 20.1609C23.2082 21.6873 24.7346 22.5513 25.6346 22.0689Z" fill="white"/>
<path d="M18.4993 8.76999C21.8673 8.76999 24.5977 8.19942 24.5977 7.49559C24.5977 6.79176 21.8673 6.22119 18.4993 6.22119C15.1312 6.22119 12.4009 6.79176 12.4009 7.49559C12.4009 8.19942 15.1312 8.76999 18.4993 8.76999Z" fill="white"/>
<path d="M24.3961 9.36061C24.3949 9.19348 24.3355 9.032 24.2282 8.90385C24.121 8.77569 23.9725 8.68885 23.8082 8.65821C23.6439 8.62756 23.474 8.65502 23.3278 8.73589C23.1815 8.81675 23.0679 8.94597 23.0065 9.10141C22.7545 9.98701 22.4449 10.3686 20.7961 10.6062C19.1244 10.8179 17.435 10.8517 15.7561 10.707C14.5753 10.5846 13.0345 10.5918 13.9201 11.643C15.6769 11.607 19.2265 11.7222 21.8401 11.643C22.5161 11.7253 23.1968 11.7613 23.8777 11.751L24.6697 10.095L24.3961 9.36061Z" fill="#6B87A3"/>
<path d="M24.5688 27.8211C24.5283 28.6309 24.2728 29.4152 23.8286 30.0934C23.3844 30.7717 22.7677 31.3194 22.0416 31.6803C20.9544 32.2752 19.735 32.587 18.4956 32.587C17.2563 32.587 16.0369 32.2752 14.9496 31.6803C14.225 31.3124 13.6111 30.7585 13.1708 30.0753C12.7306 29.3921 12.4797 28.6043 12.444 27.7923C12.3308 27.1017 12.4909 26.3941 12.8904 25.8195C13.0163 25.6906 13.1858 25.6135 13.3656 25.6035C13.8511 25.608 14.3187 25.7869 14.6832 26.1075L14.7984 26.2011C15.8425 27.0526 17.152 27.5112 18.4992 27.4971C19.7975 27.5168 21.0649 27.1011 22.0992 26.3163C22.212 26.2284 22.3202 26.1347 22.4232 26.0355C22.7653 25.7764 23.1821 25.6349 23.6112 25.6323C23.7408 25.6431 23.8616 25.7022 23.9496 25.7979C24.3647 26.3899 24.5815 27.0982 24.5688 27.8211Z" fill="#FFF688"/>
<path d="M12.0195 25.6329C12.9262 25.6329 13.6611 24.7722 13.6611 23.7105C13.6611 22.6488 12.9262 21.7881 12.0195 21.7881C11.1129 21.7881 10.3779 22.6488 10.3779 23.7105C10.3779 24.7722 11.1129 25.6329 12.0195 25.6329Z" fill="#FFF688"/>
<path d="M24.4108 30.0678C25.2538 30.0678 25.9372 29.2683 25.9372 28.2822C25.9372 27.296 25.2538 26.4966 24.4108 26.4966C23.5678 26.4966 22.8844 27.296 22.8844 28.2822C22.8844 29.2683 23.5678 30.0678 24.4108 30.0678Z" fill="#FFF688"/>
<path d="M10.3279 22.9467C10.7891 22.9467 11.1631 22.5083 11.1631 21.9675C11.1631 21.4267 10.7891 20.9883 10.3279 20.9883C9.86661 20.9883 9.49268 21.4267 9.49268 21.9675C9.49268 22.5083 9.86661 22.9467 10.3279 22.9467Z" fill="#FFF688"/>
</g>
<path d="M29.7605 24.1703C29.7605 29.5847 24.7205 33.9623 18.5069 33.9623C12.2933 33.9623 7.24609 29.5847 7.24609 24.1703C7.24609 19.8503 10.4069 16.2503 14.8205 14.9111V11.9735H13.6325C13.2646 11.9335 12.9262 11.7533 12.6876 11.4705C12.4489 11.1876 12.3284 10.8237 12.3509 10.4543L12.0845 7.4015V7.3367C12.0845 6.7247 14.9645 6.2207 18.5141 6.2207C22.0637 6.2207 24.9365 6.7247 24.9365 7.3367V7.4015L24.6773 10.4543C24.6998 10.8237 24.5793 11.1876 24.3406 11.4705C24.102 11.7533 23.7636 11.9335 23.3957 11.9735H22.1789V14.9039C26.5925 16.2287 29.7605 19.8719 29.7605 24.1703Z" stroke="#4C6E88" stroke-width="0.3744" stroke-miterlimit="10"/>
<path d="M13.9637 2.39746C14.2697 4.1444 14.7696 5.85176 15.4541 7.48786C17.0813 8.20786 20.7893 7.84786 21.3293 7.59586C22.4449 6.22836 23.3123 4.67613 23.8925 3.00946C22.0133 2.61346 13.9637 2.39746 13.9637 2.39746Z" fill="#EF7F18" stroke="#A44608" stroke-width="0.3744" stroke-miterlimit="10"/>
<mask id="mask2_128_9039" style="mask-type:luminance" maskUnits="userSpaceOnUse" x="13" y="2" width="11" height="6">
<path d="M13.9642 2.39795C14.2702 4.14489 14.7701 5.85225 15.4546 7.48835C17.0818 8.20835 20.7898 7.84835 21.3298 7.59635C22.4453 6.22885 23.3128 4.67662 23.893 3.00995C22.0138 2.61395 13.9642 2.39795 13.9642 2.39795Z" fill="white"/>
</mask>
<g mask="url(#mask2_128_9039)">
<path d="M14.3668 2.95898C15.3316 3.38798 16.3562 3.6672 17.4052 3.78698C17.7044 5.14721 18.1585 6.46865 18.7588 7.72538C17.6865 7.72191 16.6174 7.60608 15.5692 7.37978C15.0678 5.93543 14.666 4.45836 14.3668 2.95898Z" fill="#F3AE70"/>
</g>
<path d="M13.9637 2.39746C14.2697 4.1444 14.7696 5.85176 15.4541 7.48786C17.0813 8.20786 20.7893 7.84786 21.3293 7.59586C22.4449 6.22836 23.3123 4.67613 23.8925 3.00946C22.0133 2.61346 13.9637 2.39746 13.9637 2.39746Z" stroke="#A44608" stroke-width="0.3744" stroke-miterlimit="10"/>
<path d="M24.0148 2.63313C24.0614 1.81531 21.8303 1.0231 19.0314 0.863678C16.2325 0.704257 13.9258 1.238 13.8793 2.05582C13.8327 2.87364 16.0638 3.66586 18.8627 3.82528C21.6616 3.9847 23.9683 3.45096 24.0148 2.63313Z" fill="#EF7F18" stroke="#A44608" stroke-width="0.3744" stroke-miterlimit="10"/>
</svg>
