<svg width="36" height="36" viewBox="0 0 36 36" fill="none" xmlns="http://www.w3.org/2000/svg">
<path d="M18.0079 34.7764C27.277 34.7764 34.7911 27.2623 34.7911 17.9932C34.7911 8.72405 27.277 1.20996 18.0079 1.20996C8.73883 1.20996 1.22473 8.72405 1.22473 17.9932C1.22473 27.2623 8.73883 34.7764 18.0079 34.7764Z" fill="#FFF688"/>
<mask id="mask0_128_9003" style="mask-type:luminance" maskUnits="userSpaceOnUse" x="1" y="1" width="34" height="34">
<path d="M18.0089 34.7768C27.278 34.7768 34.7921 27.2628 34.7921 17.9936C34.7921 8.72454 27.278 1.21045 18.0089 1.21045C8.7398 1.21045 1.22571 8.72454 1.22571 17.9936C1.22571 27.2628 8.7398 34.7768 18.0089 34.7768Z" fill="white"/>
</mask>
<g mask="url(#mask0_128_9003)">
<path d="M37.1963 -0.491281L18.0128 -19.6748L-20.507 18.845L-1.32344 38.0285L37.1963 -0.491281Z" fill="#FFDA3E"/>
</g>
<path d="M18.0079 34.7764C27.277 34.7764 34.7911 27.2623 34.7911 17.9932C34.7911 8.72405 27.277 1.20996 18.0079 1.20996C8.73883 1.20996 1.22473 8.72405 1.22473 17.9932C1.22473 27.2623 8.73883 34.7764 18.0079 34.7764Z" stroke="#A44608" stroke-width="0.5544" stroke-miterlimit="10"/>
<path d="M18.0081 31.2123C25.3089 31.2123 31.2273 25.2939 31.2273 17.9931C31.2273 10.6924 25.3089 4.77393 18.0081 4.77393C10.7074 4.77393 4.78894 10.6924 4.78894 17.9931C4.78894 25.2939 10.7074 31.2123 18.0081 31.2123Z" fill="#F65964"/>
<mask id="mask1_128_9003" style="mask-type:luminance" maskUnits="userSpaceOnUse" x="4" y="4" width="28" height="28">
<path d="M18.0091 31.2128C25.3099 31.2128 31.2283 25.2944 31.2283 17.9936C31.2283 10.6929 25.3099 4.77441 18.0091 4.77441C10.7084 4.77441 4.78992 10.6929 4.78992 17.9936C4.78992 25.2944 10.7084 31.2128 18.0091 31.2128Z" fill="white"/>
</mask>
<g mask="url(#mask1_128_9003)">
<path d="M15.5968 29.0317C22.8975 29.0317 28.816 23.1132 28.816 15.8125C28.816 8.5117 22.8975 2.59326 15.5968 2.59326C8.296 2.59326 2.37756 8.5117 2.37756 15.8125C2.37756 23.1132 8.296 29.0317 15.5968 29.0317Z" fill="#DE3844"/>
<path d="M11.6676 10.6162C12.7529 9.53089 13.0538 8.07208 12.3396 7.35789C11.6254 6.6437 10.1666 6.94458 9.08128 8.02993C7.99593 9.11527 7.69505 10.5741 8.40925 11.2883C9.12344 12.0025 10.5822 11.7016 11.6676 10.6162Z" fill="#F65964"/>
</g>
<path d="M18.0081 31.2123C25.3089 31.2123 31.2273 25.2939 31.2273 17.9931C31.2273 10.6924 25.3089 4.77393 18.0081 4.77393C10.7074 4.77393 4.78894 10.6924 4.78894 17.9931C4.78894 25.2939 10.7074 31.2123 18.0081 31.2123Z" stroke="#AE052E" stroke-width="0.5544" stroke-miterlimit="10"/>
<path d="M18.642 7.7046L21.1764 12.8382C21.2279 12.9408 21.303 13.0296 21.3957 13.0972C21.4884 13.1648 21.5959 13.2093 21.7092 13.227L27.3612 14.0478C27.4902 14.07 27.6107 14.1269 27.7098 14.2125C27.8089 14.298 27.8827 14.409 27.9235 14.5334C27.9642 14.6578 27.9702 14.7909 27.9409 14.9185C27.9117 15.046 27.8481 15.1632 27.7572 15.2574L23.6604 19.2534C23.5795 19.3343 23.519 19.4333 23.4839 19.5422C23.4488 19.6512 23.4403 19.7669 23.4588 19.8798L24.4236 25.5174C24.4364 25.6447 24.415 25.7732 24.3616 25.8895C24.3082 26.0058 24.2247 26.1058 24.1198 26.1791C24.015 26.2525 23.8924 26.2965 23.7649 26.3068C23.6373 26.317 23.5093 26.2931 23.394 26.2374L18.354 23.5806C18.2529 23.5238 18.1388 23.494 18.0228 23.494C17.9068 23.494 17.7928 23.5238 17.6916 23.5806L12.6516 26.2374C12.5361 26.2949 12.4073 26.3203 12.2786 26.3109C12.15 26.3015 12.0262 26.2578 11.9202 26.1842C11.8142 26.1106 11.73 26.0099 11.6763 25.8926C11.6225 25.7753 11.6013 25.6457 11.6148 25.5174L12.5868 19.8798C12.6045 19.7663 12.5948 19.6502 12.5585 19.5413C12.5222 19.4323 12.4603 19.3336 12.378 19.2534L8.28844 15.2574C8.19784 15.1661 8.13334 15.0522 8.10166 14.9276C8.06997 14.8029 8.07226 14.6721 8.10827 14.5486C8.14428 14.4251 8.21271 14.3136 8.30644 14.2255C8.40016 14.1374 8.51577 14.0761 8.64124 14.0478L14.3004 13.227C14.4151 13.2104 14.524 13.1664 14.6181 13.0987C14.7121 13.031 14.7884 12.9417 14.8404 12.8382L17.3676 7.7046C17.4287 7.5885 17.5204 7.49129 17.6327 7.42348C17.745 7.35567 17.8737 7.31982 18.0048 7.31982C18.136 7.31982 18.2647 7.35567 18.377 7.42348C18.4893 7.49129 18.581 7.5885 18.642 7.7046Z" fill="white"/>
<mask id="mask2_128_9003" style="mask-type:luminance" maskUnits="userSpaceOnUse" x="8" y="7" width="20" height="20">
<path d="M18.642 7.7046L21.1764 12.8382C21.2279 12.9408 21.303 13.0296 21.3957 13.0972C21.4884 13.1648 21.5959 13.2093 21.7092 13.227L27.3612 14.0478C27.4902 14.07 27.6107 14.1269 27.7098 14.2125C27.8089 14.298 27.8827 14.409 27.9235 14.5334C27.9642 14.6578 27.9702 14.7909 27.9409 14.9185C27.9117 15.046 27.8481 15.1632 27.7572 15.2574L23.6604 19.2534C23.5795 19.3343 23.519 19.4333 23.4839 19.5422C23.4488 19.6512 23.4403 19.7669 23.4588 19.8798L24.4236 25.5174C24.4364 25.6447 24.415 25.7732 24.3616 25.8895C24.3082 26.0058 24.2247 26.1058 24.1198 26.1791C24.015 26.2525 23.8924 26.2965 23.7649 26.3068C23.6373 26.317 23.5093 26.2931 23.394 26.2374L18.354 23.5806C18.2529 23.5238 18.1388 23.494 18.0228 23.494C17.9068 23.494 17.7928 23.5238 17.6916 23.5806L12.6516 26.2374C12.5361 26.2949 12.4073 26.3203 12.2786 26.3109C12.15 26.3015 12.0262 26.2578 11.9202 26.1842C11.8142 26.1106 11.73 26.0099 11.6763 25.8926C11.6225 25.7753 11.6013 25.6457 11.6148 25.5174L12.5868 19.8798C12.6045 19.7663 12.5948 19.6502 12.5585 19.5413C12.5222 19.4323 12.4603 19.3336 12.378 19.2534L8.28844 15.2574C8.19784 15.1661 8.13334 15.0522 8.10166 14.9276C8.06997 14.8029 8.07226 14.6721 8.10827 14.5486C8.14428 14.4251 8.21271 14.3136 8.30644 14.2255C8.40016 14.1374 8.51577 14.0761 8.64124 14.0478L14.3004 13.227C14.4151 13.2104 14.524 13.1664 14.6181 13.0987C14.7121 13.031 14.7884 12.9417 14.8404 12.8382L17.3676 7.7046C17.4287 7.5885 17.5204 7.49129 17.6327 7.42348C17.745 7.35567 17.8737 7.31982 18.0048 7.31982C18.136 7.31982 18.2647 7.35567 18.377 7.42348C18.4893 7.49129 18.581 7.5885 18.642 7.7046Z" fill="white"/>
</mask>
<g mask="url(#mask2_128_9003)">
<path d="M27.635 17.5903C27.4334 17.6695 4.80383 17.5903 4.80383 17.5903L13.4438 29.9239L29.0894 24.2575L27.635 17.5903Z" fill="#9FBBCE"/>
</g>
<path d="M18.642 7.7046L21.1764 12.8382C21.2279 12.9408 21.303 13.0296 21.3957 13.0972C21.4884 13.1648 21.5959 13.2093 21.7092 13.227L27.3612 14.0478C27.4902 14.07 27.6107 14.1269 27.7098 14.2125C27.8089 14.298 27.8827 14.409 27.9235 14.5334C27.9642 14.6578 27.9702 14.7909 27.9409 14.9185C27.9117 15.046 27.8481 15.1632 27.7572 15.2574L23.6604 19.2534C23.5795 19.3343 23.519 19.4333 23.4839 19.5422C23.4488 19.6512 23.4402 19.7669 23.4588 19.8798L24.4236 25.5174C24.4364 25.6447 24.415 25.7732 24.3616 25.8895C24.3082 26.0058 24.2247 26.1058 24.1198 26.1791C24.015 26.2525 23.8924 26.2965 23.7649 26.3068C23.6373 26.317 23.5093 26.2931 23.394 26.2374L18.354 23.5806C18.2529 23.5238 18.1388 23.494 18.0228 23.494C17.9068 23.494 17.7928 23.5238 17.6916 23.5806L12.6516 26.2374C12.5361 26.2949 12.4073 26.3203 12.2786 26.3109C12.15 26.3015 12.0262 26.2578 11.9202 26.1842C11.8142 26.1106 11.73 26.0099 11.6763 25.8926C11.6225 25.7753 11.6013 25.6457 11.6148 25.5174L12.5868 19.8798C12.6045 19.7663 12.5948 19.6502 12.5585 19.5413C12.5222 19.4323 12.4603 19.3336 12.378 19.2534L8.28844 15.2574C8.19784 15.1661 8.13334 15.0522 8.10166 14.9276C8.06997 14.8029 8.07226 14.6721 8.10827 14.5486C8.14428 14.4251 8.21271 14.3136 8.30644 14.2255C8.40016 14.1374 8.51577 14.0761 8.64124 14.0478L14.3004 13.227C14.4151 13.2104 14.524 13.1664 14.6181 13.0987C14.7121 13.031 14.7884 12.9417 14.8404 12.8382L17.3676 7.7046C17.4287 7.5885 17.5204 7.49129 17.6327 7.42348C17.745 7.35567 17.8737 7.31982 18.0048 7.31982C18.136 7.31982 18.2647 7.35567 18.377 7.42348C18.4893 7.49129 18.581 7.5885 18.642 7.7046Z" stroke="#4C6E88" stroke-width="0.5544" stroke-miterlimit="10"/>
</svg>
